<svg width="64" height="64" viewBox="0 0 64 64" fill="none" xmlns="http://www.w3.org/2000/svg">
<path d="M59.0902 45.1601L38.3302 26.6101L43.2602 21.6901L44.4102 22.8401C44.5031 22.9338 44.6137 23.0082 44.7356 23.059C44.8575 23.1098 44.9882 23.1359 45.1202 23.1359C45.2522 23.1359 45.3829 23.1098 45.5048 23.059C45.6266 23.0082 45.7372 22.9338 45.8302 22.8401L47.4102 21.2601C47.7912 20.8794 48.0934 20.4273 48.2996 19.9297C48.5058 19.4321 48.6119 18.8987 48.6119 18.3601C48.6119 17.8215 48.5058 17.2881 48.2996 16.7905C48.0934 16.2929 47.7912 15.8409 47.4102 15.4601L36.2202 4.27011C35.4499 3.50312 34.4072 3.07251 33.3202 3.07251C32.2332 3.07251 31.1904 3.50312 30.4202 4.27011L28.8402 5.86011C28.6539 6.04747 28.5494 6.30092 28.5494 6.56511C28.5494 6.82929 28.6539 7.08274 28.8402 7.27011L30.5102 8.9401L14.7902 24.6601L13.1202 23.0001C12.9328 22.8139 12.6794 22.7093 12.4152 22.7093C12.151 22.7093 11.8975 22.8139 11.7102 23.0001L10.1202 24.5801C9.7392 24.9609 9.43698 25.4129 9.23078 25.9105C9.02459 26.4081 8.91846 26.9415 8.91846 27.4801C8.91846 28.0187 9.02459 28.5521 9.23078 29.0497C9.43698 29.5473 9.7392 29.9994 10.1202 30.3801L21.3102 41.5601C21.6909 41.9411 22.143 42.2433 22.6406 42.4495C23.1382 42.6557 23.6716 42.7618 24.2102 42.7618C24.7488 42.7618 25.2822 42.6557 25.7797 42.4495C26.2773 42.2433 26.7294 41.9411 27.1102 41.5601L28.6902 40.0001C28.7839 39.9071 28.8583 39.7965 28.9091 39.6747C28.9598 39.5528 28.986 39.4221 28.986 39.2901C28.986 39.1581 28.9598 39.0274 28.9091 38.9055C28.8583 38.7837 28.7839 38.6731 28.6902 38.5801L27.5402 37.4301L32.4602 32.5001L51.0002 53.2401C51.5205 53.8176 52.1527 54.2835 52.8585 54.6093C53.5642 54.9352 54.3288 55.1143 55.1059 55.1358C55.883 55.1574 56.6563 55.0208 57.379 54.7345C58.1017 54.4481 58.7587 54.018 59.3102 53.4701V53.4701C59.8587 52.9193 60.2896 52.2628 60.5768 51.5405C60.8639 50.8182 61.0014 50.045 60.9808 49.268C60.9603 48.4909 60.7821 47.7261 60.4571 47.02C60.1321 46.3139 59.6671 45.6811 59.0902 45.1601V45.1601ZM26.1202 36.0001L16.2002 26.0701L31.9202 10.3501L41.8402 20.2701L26.1202 36.0001Z" fill="#b09865" id="id_106"></path>
<path d="M37.72 59.0001H35.86V53.9001C35.86 53.6349 35.7546 53.3806 35.5671 53.193C35.3796 53.0055 35.1252 52.9001 34.86 52.9001H33.34V50.9001C33.34 50.6349 33.2346 50.3806 33.0471 50.193C32.8596 50.0055 32.6052 49.9001 32.34 49.9001H9.34C9.07478 49.9001 8.82043 50.0055 8.63289 50.193C8.44536 50.3806 8.34 50.6349 8.34 50.9001V52.9001H6.86C6.59478 52.9001 6.34043 53.0055 6.15289 53.193C5.96536 53.3806 5.86 53.6349 5.86 53.9001V59.0001H4C3.73478 59.0001 3.48043 59.1055 3.29289 59.293C3.10536 59.4806 3 59.7349 3 60.0001C3 60.2654 3.10536 60.5197 3.29289 60.7073C3.48043 60.8948 3.73478 61.0001 4 61.0001H37.72C37.9852 61.0001 38.2396 60.8948 38.4271 60.7073C38.6146 60.5197 38.72 60.2654 38.72 60.0001C38.72 59.7349 38.6146 59.4806 38.4271 59.293C38.2396 59.1055 37.9852 59.0001 37.72 59.0001ZM10.38 51.8501H31.38V52.8501H10.38V51.8501Z" fill="#b09865" id="id_107"></path>
</svg>